<mxfile host="app.diagrams.net" modified="2024-05-10T07:05:46.175Z" agent="Mozilla/5.0 (Windows NT 10.0; Win64; x64) AppleWebKit/537.36 (KHTML, like Gecko) Chrome/123.0.0.0 Safari/537.36 OPR/109.0.0.0" etag="NjQ3Y0sta0tS8wydVwi3" version="24.3.1" type="device">
  <diagram id="C5RBs43oDa-KdzZeNtuy" name="Page-1">
    <mxGraphModel dx="1616" dy="1597" grid="1" gridSize="10" guides="1" tooltips="1" connect="1" arrows="1" fold="1" page="1" pageScale="1" pageWidth="827" pageHeight="1169" math="0" shadow="0">
      <root>
        <mxCell id="WIyWlLk6GJQsqaUBKTNV-0" />
        <mxCell id="WIyWlLk6GJQsqaUBKTNV-1" parent="WIyWlLk6GJQsqaUBKTNV-0" />
        <mxCell id="c3afByQmrDaTbbPtqfAJ-2" value="libro" style="swimlane;fontStyle=3;align=center;verticalAlign=top;childLayout=stackLayout;horizontal=1;startSize=26;horizontalStack=0;resizeParent=1;resizeParentMax=0;resizeLast=0;collapsible=1;marginBottom=0;whiteSpace=wrap;html=1;" parent="WIyWlLk6GJQsqaUBKTNV-1" vertex="1">
          <mxGeometry x="-560" y="-130" width="160" height="60" as="geometry" />
        </mxCell>
        <mxCell id="c3afByQmrDaTbbPtqfAJ-3" value="&lt;div&gt;- paginas: int&lt;/div&gt;" style="text;strokeColor=none;fillColor=none;align=left;verticalAlign=top;spacingLeft=4;spacingRight=4;overflow=hidden;rotatable=0;points=[[0,0.5],[1,0.5]];portConstraint=eastwest;whiteSpace=wrap;html=1;" parent="c3afByQmrDaTbbPtqfAJ-2" vertex="1">
          <mxGeometry y="26" width="160" height="34" as="geometry" />
        </mxCell>
        <mxCell id="c3afByQmrDaTbbPtqfAJ-5" value="Usuario" style="swimlane;fontStyle=3;align=center;verticalAlign=top;childLayout=stackLayout;horizontal=1;startSize=26;horizontalStack=0;resizeParent=1;resizeParentMax=0;resizeLast=0;collapsible=1;marginBottom=0;whiteSpace=wrap;html=1;" parent="WIyWlLk6GJQsqaUBKTNV-1" vertex="1">
          <mxGeometry x="300" y="-170" width="160" height="60" as="geometry" />
        </mxCell>
        <mxCell id="c3afByQmrDaTbbPtqfAJ-6" value="- id: String&lt;div&gt;&lt;br&gt;&lt;/div&gt;" style="text;strokeColor=none;fillColor=none;align=left;verticalAlign=top;spacingLeft=4;spacingRight=4;overflow=hidden;rotatable=0;points=[[0,0.5],[1,0.5]];portConstraint=eastwest;whiteSpace=wrap;html=1;" parent="c3afByQmrDaTbbPtqfAJ-5" vertex="1">
          <mxGeometry y="26" width="160" height="34" as="geometry" />
        </mxCell>
        <mxCell id="c3afByQmrDaTbbPtqfAJ-7" value="Persona" style="swimlane;fontStyle=3;align=center;verticalAlign=top;childLayout=stackLayout;horizontal=1;startSize=26;horizontalStack=0;resizeParent=1;resizeLast=0;collapsible=1;marginBottom=0;rounded=0;shadow=0;strokeWidth=1;" parent="WIyWlLk6GJQsqaUBKTNV-1" vertex="1">
          <mxGeometry x="334" y="-360.99" width="160" height="120" as="geometry">
            <mxRectangle x="230" y="140" width="160" height="26" as="alternateBounds" />
          </mxGeometry>
        </mxCell>
        <mxCell id="c3afByQmrDaTbbPtqfAJ-8" value="# nombre: String&#xa;# apellido: String&#xa;# cedula: String&#xa;# direccion: StringÂ &#xa;" style="text;align=left;verticalAlign=top;spacingLeft=4;spacingRight=4;overflow=hidden;rotatable=0;points=[[0,0.5],[1,0.5]];portConstraint=eastwest;" parent="c3afByQmrDaTbbPtqfAJ-7" vertex="1">
          <mxGeometry y="26" width="160" height="74" as="geometry" />
        </mxCell>
        <mxCell id="c3afByQmrDaTbbPtqfAJ-13" value="Autor" style="swimlane;fontStyle=3;align=center;verticalAlign=top;childLayout=stackLayout;horizontal=1;startSize=26;horizontalStack=0;resizeParent=1;resizeParentMax=0;resizeLast=0;collapsible=1;marginBottom=0;whiteSpace=wrap;html=1;" parent="WIyWlLk6GJQsqaUBKTNV-1" vertex="1">
          <mxGeometry x="-530" y="-450.99" width="160" height="90" as="geometry" />
        </mxCell>
        <mxCell id="c3afByQmrDaTbbPtqfAJ-14" value="- nombre: String&lt;div&gt;- nacionalidad: String&lt;/div&gt;" style="text;strokeColor=none;fillColor=none;align=left;verticalAlign=top;spacingLeft=4;spacingRight=4;overflow=hidden;rotatable=0;points=[[0,0.5],[1,0.5]];portConstraint=eastwest;whiteSpace=wrap;html=1;" parent="c3afByQmrDaTbbPtqfAJ-13" vertex="1">
          <mxGeometry y="26" width="160" height="64" as="geometry" />
        </mxCell>
        <mxCell id="c3afByQmrDaTbbPtqfAJ-17" value="Librero(trabajador)" style="swimlane;fontStyle=3;align=center;verticalAlign=top;childLayout=stackLayout;horizontal=1;startSize=26;horizontalStack=0;resizeParent=1;resizeParentMax=0;resizeLast=0;collapsible=1;marginBottom=0;whiteSpace=wrap;html=1;" parent="WIyWlLk6GJQsqaUBKTNV-1" vertex="1">
          <mxGeometry x="-20" y="-360" width="160" height="52" as="geometry" />
        </mxCell>
        <mxCell id="c3afByQmrDaTbbPtqfAJ-18" value="- id: String" style="text;strokeColor=none;fillColor=none;align=left;verticalAlign=top;spacingLeft=4;spacingRight=4;overflow=hidden;rotatable=0;points=[[0,0.5],[1,0.5]];portConstraint=eastwest;whiteSpace=wrap;html=1;" parent="c3afByQmrDaTbbPtqfAJ-17" vertex="1">
          <mxGeometry y="26" width="160" height="26" as="geometry" />
        </mxCell>
        <mxCell id="c3afByQmrDaTbbPtqfAJ-19" value="" style="endArrow=block;endSize=16;endFill=0;html=1;rounded=0;exitX=0.638;exitY=0.017;exitDx=0;exitDy=0;exitPerimeter=0;" parent="WIyWlLk6GJQsqaUBKTNV-1" source="c3afByQmrDaTbbPtqfAJ-5" edge="1">
          <mxGeometry width="160" relative="1" as="geometry">
            <mxPoint x="260" y="-160" as="sourcePoint" />
            <mxPoint x="400" y="-240" as="targetPoint" />
            <Array as="points" />
          </mxGeometry>
        </mxCell>
        <mxCell id="c3afByQmrDaTbbPtqfAJ-20" value="" style="endArrow=block;endSize=16;endFill=0;html=1;rounded=0;entryX=0.02;entryY=0.03;entryDx=0;entryDy=0;exitX=1;exitY=0.5;exitDx=0;exitDy=0;entryPerimeter=0;" parent="WIyWlLk6GJQsqaUBKTNV-1" source="c3afByQmrDaTbbPtqfAJ-17" target="c3afByQmrDaTbbPtqfAJ-8" edge="1">
          <mxGeometry width="160" relative="1" as="geometry">
            <mxPoint x="210" y="-153" as="sourcePoint" />
            <mxPoint x="210" y="-200" as="targetPoint" />
            <Array as="points">
              <mxPoint x="170" y="-330" />
            </Array>
          </mxGeometry>
        </mxCell>
        <mxCell id="c3afByQmrDaTbbPtqfAJ-24" value="" style="endArrow=none;html=1;edgeStyle=orthogonalEdgeStyle;rounded=0;exitX=1;exitY=0.5;exitDx=0;exitDy=0;entryX=0.519;entryY=1.024;entryDx=0;entryDy=0;entryPerimeter=0;" parent="WIyWlLk6GJQsqaUBKTNV-1" source="c3afByQmrDaTbbPtqfAJ-28" target="c3afByQmrDaTbbPtqfAJ-18" edge="1">
          <mxGeometry relative="1" as="geometry">
            <mxPoint x="-110.15999999999985" y="-139.79999999999995" as="sourcePoint" />
            <mxPoint x="55" y="-140" as="targetPoint" />
            <Array as="points">
              <mxPoint x="-107" y="-252" />
              <mxPoint x="-107" y="-250" />
              <mxPoint x="63" y="-250" />
            </Array>
          </mxGeometry>
        </mxCell>
        <mxCell id="c3afByQmrDaTbbPtqfAJ-27" value="Biblioteca" style="swimlane;fontStyle=3;align=center;verticalAlign=top;childLayout=stackLayout;horizontal=1;startSize=26;horizontalStack=0;resizeParent=1;resizeParentMax=0;resizeLast=0;collapsible=1;marginBottom=0;whiteSpace=wrap;html=1;" parent="WIyWlLk6GJQsqaUBKTNV-1" vertex="1">
          <mxGeometry x="-270" y="-310" width="160" height="110" as="geometry" />
        </mxCell>
        <mxCell id="c3afByQmrDaTbbPtqfAJ-28" value="- nombre: String&lt;div&gt;- direccion: String&lt;/div&gt;" style="text;strokeColor=none;fillColor=none;align=left;verticalAlign=top;spacingLeft=4;spacingRight=4;overflow=hidden;rotatable=0;points=[[0,0.5],[1,0.5]];portConstraint=eastwest;whiteSpace=wrap;html=1;" parent="c3afByQmrDaTbbPtqfAJ-27" vertex="1">
          <mxGeometry y="26" width="160" height="34" as="geometry" />
        </mxCell>
        <mxCell id="c3afByQmrDaTbbPtqfAJ-29" value="" style="line;strokeWidth=1;fillColor=none;align=left;verticalAlign=middle;spacingTop=-1;spacingLeft=3;spacingRight=3;rotatable=0;labelPosition=right;points=[];portConstraint=eastwest;strokeColor=inherit;" parent="c3afByQmrDaTbbPtqfAJ-27" vertex="1">
          <mxGeometry y="60" width="160" height="8" as="geometry" />
        </mxCell>
        <mxCell id="c3afByQmrDaTbbPtqfAJ-30" value="+ agregarSeccion(): void&lt;div&gt;+ quitarSeccion(): void&lt;/div&gt;&lt;div&gt;&lt;br&gt;&lt;/div&gt;" style="text;strokeColor=none;fillColor=none;align=left;verticalAlign=top;spacingLeft=4;spacingRight=4;overflow=hidden;rotatable=0;points=[[0,0.5],[1,0.5]];portConstraint=eastwest;whiteSpace=wrap;html=1;" parent="c3afByQmrDaTbbPtqfAJ-27" vertex="1">
          <mxGeometry y="68" width="160" height="42" as="geometry" />
        </mxCell>
        <mxCell id="c3afByQmrDaTbbPtqfAJ-31" value="Seccion" style="swimlane;fontStyle=3;align=center;verticalAlign=top;childLayout=stackLayout;horizontal=1;startSize=26;horizontalStack=0;resizeParent=1;resizeParentMax=0;resizeLast=0;collapsible=1;marginBottom=0;whiteSpace=wrap;html=1;" parent="WIyWlLk6GJQsqaUBKTNV-1" vertex="1">
          <mxGeometry x="-270" y="-90" width="160" height="60" as="geometry" />
        </mxCell>
        <mxCell id="c3afByQmrDaTbbPtqfAJ-32" value="- nombre: String" style="text;strokeColor=none;fillColor=none;align=left;verticalAlign=top;spacingLeft=4;spacingRight=4;overflow=hidden;rotatable=0;points=[[0,0.5],[1,0.5]];portConstraint=eastwest;whiteSpace=wrap;html=1;" parent="c3afByQmrDaTbbPtqfAJ-31" vertex="1">
          <mxGeometry y="26" width="160" height="34" as="geometry" />
        </mxCell>
        <mxCell id="c3afByQmrDaTbbPtqfAJ-35" value="Estante" style="swimlane;fontStyle=3;align=center;verticalAlign=top;childLayout=stackLayout;horizontal=1;startSize=26;horizontalStack=0;resizeParent=1;resizeParentMax=0;resizeLast=0;collapsible=1;marginBottom=0;whiteSpace=wrap;html=1;" parent="WIyWlLk6GJQsqaUBKTNV-1" vertex="1">
          <mxGeometry x="-280" y="50" width="160" height="90" as="geometry" />
        </mxCell>
        <mxCell id="c3afByQmrDaTbbPtqfAJ-36" value="&lt;div&gt;-sector: int&lt;/div&gt;- numero: int" style="text;strokeColor=none;fillColor=none;align=left;verticalAlign=top;spacingLeft=4;spacingRight=4;overflow=hidden;rotatable=0;points=[[0,0.5],[1,0.5]];portConstraint=eastwest;whiteSpace=wrap;html=1;" parent="c3afByQmrDaTbbPtqfAJ-35" vertex="1">
          <mxGeometry y="26" width="160" height="64" as="geometry" />
        </mxCell>
        <mxCell id="c3afByQmrDaTbbPtqfAJ-37" value="Publicacion" style="swimlane;fontStyle=3;align=center;verticalAlign=top;childLayout=stackLayout;horizontal=1;startSize=26;horizontalStack=0;resizeParent=1;resizeParentMax=0;resizeLast=0;collapsible=1;marginBottom=0;whiteSpace=wrap;html=1;" parent="WIyWlLk6GJQsqaUBKTNV-1" vertex="1">
          <mxGeometry x="-560" y="-284" width="160" height="90" as="geometry" />
        </mxCell>
        <mxCell id="c3afByQmrDaTbbPtqfAJ-38" value="# titutlo: String&lt;div&gt;# fechaLanzamiento: Date&lt;/div&gt;&lt;div&gt;# editorial: String&lt;/div&gt;" style="text;strokeColor=none;fillColor=none;align=left;verticalAlign=top;spacingLeft=4;spacingRight=4;overflow=hidden;rotatable=0;points=[[0,0.5],[1,0.5]];portConstraint=eastwest;whiteSpace=wrap;html=1;" parent="c3afByQmrDaTbbPtqfAJ-37" vertex="1">
          <mxGeometry y="26" width="160" height="64" as="geometry" />
        </mxCell>
        <mxCell id="c3afByQmrDaTbbPtqfAJ-39" value="&lt;&lt;enumeracion&gt;&gt;&#xa;Genero" style="swimlane;fontStyle=3;align=center;verticalAlign=top;childLayout=stackLayout;horizontal=1;startSize=40;horizontalStack=0;resizeParent=1;resizeLast=0;collapsible=1;marginBottom=0;rounded=0;shadow=0;strokeWidth=1;" parent="WIyWlLk6GJQsqaUBKTNV-1" vertex="1">
          <mxGeometry x="-560" y="-29.999999999999986" width="160" height="110" as="geometry">
            <mxRectangle x="340" y="380" width="170" height="26" as="alternateBounds" />
          </mxGeometry>
        </mxCell>
        <mxCell id="c3afByQmrDaTbbPtqfAJ-40" value="- Academico&#xa;- Enciclopedia&#xa;- Cientifico&#xa;- literatura" style="text;align=left;verticalAlign=top;spacingLeft=4;spacingRight=4;overflow=hidden;rotatable=0;points=[[0,0.5],[1,0.5]];portConstraint=eastwest;" parent="c3afByQmrDaTbbPtqfAJ-39" vertex="1">
          <mxGeometry y="40" width="160" height="70" as="geometry" />
        </mxCell>
        <mxCell id="c3afByQmrDaTbbPtqfAJ-41" value="" style="endArrow=none;html=1;edgeStyle=orthogonalEdgeStyle;rounded=0;exitX=0.488;exitY=1.047;exitDx=0;exitDy=0;exitPerimeter=0;entryX=0.575;entryY=-0.056;entryDx=0;entryDy=0;entryPerimeter=0;" parent="WIyWlLk6GJQsqaUBKTNV-1" target="c3afByQmrDaTbbPtqfAJ-37" edge="1">
          <mxGeometry relative="1" as="geometry">
            <mxPoint x="-451.9200000000001" y="-360.9920000000002" as="sourcePoint" />
            <mxPoint x="-560" y="-270" as="targetPoint" />
            <Array as="points">
              <mxPoint x="-452" y="-284" />
              <mxPoint x="-468" y="-284" />
            </Array>
          </mxGeometry>
        </mxCell>
        <mxCell id="c3afByQmrDaTbbPtqfAJ-44" value="" style="endArrow=none;html=1;edgeStyle=orthogonalEdgeStyle;rounded=0;exitX=0.795;exitY=1.024;exitDx=0;exitDy=0;exitPerimeter=0;entryX=-0.005;entryY=0.691;entryDx=0;entryDy=0;entryPerimeter=0;" parent="WIyWlLk6GJQsqaUBKTNV-1" source="c3afByQmrDaTbbPtqfAJ-30" target="c3afByQmrDaTbbPtqfAJ-6" edge="1">
          <mxGeometry relative="1" as="geometry">
            <mxPoint x="-110.15999999999985" y="-39.799999999999955" as="sourcePoint" />
            <mxPoint x="350" y="-60" as="targetPoint" />
            <Array as="points">
              <mxPoint x="-140" y="-188" />
              <mxPoint x="-140" y="-124" />
            </Array>
          </mxGeometry>
        </mxCell>
        <mxCell id="c3afByQmrDaTbbPtqfAJ-54" value="" style="endArrow=block;endSize=16;endFill=0;html=1;rounded=0;exitX=0.75;exitY=0;exitDx=0;exitDy=0;entryX=0.752;entryY=1.017;entryDx=0;entryDy=0;entryPerimeter=0;" parent="WIyWlLk6GJQsqaUBKTNV-1" source="c3afByQmrDaTbbPtqfAJ-2" target="c3afByQmrDaTbbPtqfAJ-38" edge="1">
          <mxGeometry width="160" relative="1" as="geometry">
            <mxPoint x="-470" y="-150" as="sourcePoint" />
            <mxPoint x="-310" y="-150" as="targetPoint" />
          </mxGeometry>
        </mxCell>
        <mxCell id="c3afByQmrDaTbbPtqfAJ-55" value="" style="endArrow=none;html=1;edgeStyle=orthogonalEdgeStyle;rounded=0;entryX=0.5;entryY=0;entryDx=0;entryDy=0;exitX=0.5;exitY=1.005;exitDx=0;exitDy=0;exitPerimeter=0;" parent="WIyWlLk6GJQsqaUBKTNV-1" source="c3afByQmrDaTbbPtqfAJ-3" target="c3afByQmrDaTbbPtqfAJ-39" edge="1">
          <mxGeometry relative="1" as="geometry">
            <mxPoint x="-478.4000000000001" y="-5.324000000000069" as="sourcePoint" />
            <mxPoint x="-680" y="80.00000000000001" as="targetPoint" />
            <Array as="points" />
          </mxGeometry>
        </mxCell>
        <mxCell id="c3afByQmrDaTbbPtqfAJ-61" value="" style="endArrow=none;html=1;edgeStyle=orthogonalEdgeStyle;rounded=0;entryX=0;entryY=0.5;entryDx=0;entryDy=0;exitX=1.019;exitY=0.299;exitDx=0;exitDy=0;exitPerimeter=0;" parent="WIyWlLk6GJQsqaUBKTNV-1" source="c3afByQmrDaTbbPtqfAJ-3" edge="1">
          <mxGeometry relative="1" as="geometry">
            <mxPoint x="-500" as="sourcePoint" />
            <mxPoint x="-270" y="-52" as="targetPoint" />
            <Array as="points">
              <mxPoint x="-397" y="-80" />
              <mxPoint x="-360" y="-80" />
              <mxPoint x="-360" y="-52" />
            </Array>
          </mxGeometry>
        </mxCell>
        <mxCell id="c3afByQmrDaTbbPtqfAJ-64" value="" style="endArrow=none;html=1;edgeStyle=orthogonalEdgeStyle;rounded=0;entryX=0.5;entryY=0;entryDx=0;entryDy=0;exitX=0.515;exitY=1.005;exitDx=0;exitDy=0;exitPerimeter=0;" parent="WIyWlLk6GJQsqaUBKTNV-1" source="c3afByQmrDaTbbPtqfAJ-32" target="c3afByQmrDaTbbPtqfAJ-35" edge="1">
          <mxGeometry relative="1" as="geometry">
            <mxPoint x="-270" y="210" as="sourcePoint" />
            <mxPoint x="-110" y="210" as="targetPoint" />
            <Array as="points">
              <mxPoint x="-190" y="-30" />
              <mxPoint x="-190" y="50" />
            </Array>
          </mxGeometry>
        </mxCell>
        <mxCell id="c3afByQmrDaTbbPtqfAJ-79" value="" style="endArrow=diamondThin;endFill=0;endSize=24;html=1;rounded=0;entryX=0.25;entryY=0.995;entryDx=0;entryDy=0;entryPerimeter=0;exitX=0.25;exitY=0;exitDx=0;exitDy=0;" parent="WIyWlLk6GJQsqaUBKTNV-1" source="c3afByQmrDaTbbPtqfAJ-31" target="c3afByQmrDaTbbPtqfAJ-30" edge="1">
          <mxGeometry width="160" relative="1" as="geometry">
            <mxPoint x="-230" y="-110" as="sourcePoint" />
            <mxPoint x="-220" y="-20" as="targetPoint" />
          </mxGeometry>
        </mxCell>
        <mxCell id="h6Bpyomu1Rxf2gS60ixz-0" value="&amp;lt;&amp;lt;interfaz&amp;gt;&amp;gt;&lt;div&gt;TareasPrincipales&lt;/div&gt;" style="swimlane;fontStyle=3;align=center;verticalAlign=top;childLayout=stackLayout;horizontal=1;startSize=40;horizontalStack=0;resizeParent=1;resizeParentMax=0;resizeLast=0;collapsible=1;marginBottom=0;whiteSpace=wrap;html=1;" vertex="1" parent="WIyWlLk6GJQsqaUBKTNV-1">
          <mxGeometry x="30" y="-80" width="190" height="90" as="geometry" />
        </mxCell>
        <mxCell id="h6Bpyomu1Rxf2gS60ixz-1" value="&lt;div&gt;+ crearUsuario(): void&lt;/div&gt;&lt;div&gt;+ modificarUsuario(): void&lt;/div&gt;&lt;div&gt;+ quitarUsuario(): void&lt;/div&gt;" style="text;strokeColor=none;fillColor=none;align=left;verticalAlign=top;spacingLeft=4;spacingRight=4;overflow=hidden;rotatable=0;points=[[0,0.5],[1,0.5]];portConstraint=eastwest;whiteSpace=wrap;html=1;" vertex="1" parent="h6Bpyomu1Rxf2gS60ixz-0">
          <mxGeometry y="40" width="190" height="50" as="geometry" />
        </mxCell>
        <mxCell id="h6Bpyomu1Rxf2gS60ixz-2" value="" style="endArrow=block;endFill=1;html=1;edgeStyle=orthogonalEdgeStyle;align=left;verticalAlign=top;rounded=0;exitX=1;exitY=0.5;exitDx=0;exitDy=0;" edge="1" parent="WIyWlLk6GJQsqaUBKTNV-1" source="c3afByQmrDaTbbPtqfAJ-30">
          <mxGeometry x="-1" relative="1" as="geometry">
            <mxPoint x="-50" y="-80" as="sourcePoint" />
            <mxPoint x="110" y="-80" as="targetPoint" />
          </mxGeometry>
        </mxCell>
      </root>
    </mxGraphModel>
  </diagram>
</mxfile>
